HIERARCHY
ROOT root
{
	OFFSET 0.000000 0.000000 0.000000
	CHANNELS 6 Xposition Yposition Zposition Zrotation Yrotation Xrotation
	JOINT lhip
	{
		OFFSET 0.058581 -0.082280 -0.017664
		CHANNELS 3 Zrotation Yrotation Xrotation
		JOINT lknee
		{
			OFFSET 0.043451 -0.386469 0.008037
			CHANNELS 3 Zrotation Yrotation Xrotation
			JOINT lankle
			{
				OFFSET -0.014790 -0.426874 -0.037428
				CHANNELS 3 Zrotation Yrotation Xrotation
				JOINT ltoe
				{
					OFFSET 0.041054 -0.060286 0.122042
					CHANNELS 3 Zrotation Yrotation Xrotation
					End Site
					{
						OFFSET 0.000000 0.000000 0.000000
					}
				}
			}
		}
	}
	JOINT rhip
	{
		OFFSET -0.060310 -0.090513 -0.013543
		CHANNELS 3 Zrotation Yrotation Xrotation
		JOINT rknee
		{
			OFFSET -0.043257 -0.383688 -0.004843
			CHANNELS 3 Zrotation Yrotation Xrotation
			JOINT rankle
			{
				OFFSET 0.019056 -0.420046 -0.034562
				CHANNELS 3 Zrotation Yrotation Xrotation
				JOINT rtoe
				{
					OFFSET -0.034840 -0.062106 0.130323
					CHANNELS 3 Zrotation Yrotation Xrotation
					End Site
					{
						OFFSET 0.000000 0.000000 0.000000
					}
				}
			}
		}
	}
	JOINT lowerback
	{
		OFFSET 0.004439 0.124404 -0.038385
		CHANNELS 3 Zrotation Yrotation Xrotation
		JOINT upperback
		{
			OFFSET 0.004488 0.137956 0.026820
			CHANNELS 3 Zrotation Yrotation Xrotation
			JOINT chest
			{
				OFFSET -0.002265 0.056032 0.002855
				CHANNELS 3 Zrotation Yrotation Xrotation
				JOINT lowerneck
				{
					OFFSET -0.013390 0.211636 -0.033468
					CHANNELS 3 Zrotation Yrotation Xrotation
					JOINT upperneck
					{
						OFFSET 0.010113 0.088937 0.050410
						CHANNELS 3 Zrotation Yrotation Xrotation
						End Site
						{
							OFFSET 0.000000 0.000000 0.000000
						}
					}
				}
				JOINT lclavicle
				{
					OFFSET 0.071702 0.114000 -0.018898
					CHANNELS 3 Zrotation Yrotation Xrotation
					JOINT lshoulder
					{
						OFFSET 0.122921 0.045205 -0.019046
						CHANNELS 3 Zrotation Yrotation Xrotation
						JOINT lelbow
						{
							OFFSET 0.255332 -0.015649 -0.022946
							CHANNELS 3 Zrotation Yrotation Xrotation
							JOINT lwrist
							{
								OFFSET 0.265709 0.012698 -0.007375
								CHANNELS 3 Zrotation Yrotation Xrotation
								End Site
								{
									OFFSET 0.000000 0.000000 0.000000
								}
							}
						}
					}
				}
				JOINT rclavicle
				{
					OFFSET -0.082954 0.112472 -0.023707
					CHANNELS 3 Zrotation Yrotation Xrotation
					JOINT rshoulder
					{
						OFFSET -0.113228 0.046853 -0.008472
						CHANNELS 3 Zrotation Yrotation Xrotation
						JOINT relbow
						{
							OFFSET -0.260127 -0.014369 -0.031269
							CHANNELS 3 Zrotation Yrotation Xrotation
							JOINT rwrist
							{
								OFFSET -0.269108 0.006794 -0.006027
								CHANNELS 3 Zrotation Yrotation Xrotation
								End Site
								{
									OFFSET 0.000000 0.000000 0.000000
								}
							}
						}
					}
				}
			}
		}
	}
}
MOTION
Frames: 3
Frame Time: 0.033333
-0.149334 0.021947 0.884749 173.162340 -0.472621 79.820052 7.985286 -6.016819 -13.343356 -4.302866 -3.255558 43.459927 2.009948 16.686464 -31.180564 0.000000 -0.000000 0.000000 -6.575603 1.916766 -21.256521 -2.405178 0.329303 50.261083 1.346069 -11.247296 -25.331605 0.000000 -0.000000 0.000000 1.311248 2.125427 17.953751 -1.885265 1.862172 2.862165 -1.014078 5.409705 -14.456599 -1.553163 36.314789 11.060078 -0.420984 32.899081 -1.834674 -9.572269 -32.433984 -1.677311 -0.689373 -16.922755 -4.736563 49.970545 -64.305898 -41.568743 6.887711 -32.437225 -12.026961 7.815379 34.059695 7.852760 -1.119259 18.376925 -9.774896 -45.965930 57.259238 -29.703787 0.025292 8.177386 -23.111708 
-0.148094 0.016439 0.887263 173.103702 -0.581115 79.906600 7.707806 -5.778902 -14.001434 -4.218226 -3.274525 43.946155 2.253474 16.552765 -31.792328 0.000000 -0.000000 0.000000 -6.330996 2.014590 -21.375227 -2.209659 0.494579 49.943059 1.366764 -11.782511 -25.723948 0.000000 -0.000000 0.000000 1.512867 1.838118 17.280426 -2.279760 1.723134 3.390779 -1.067334 5.725243 -14.738594 -2.637658 35.695984 10.178043 0.480223 33.515774 -1.892190 -10.673519 -34.267579 -1.625647 1.233554 -15.195306 -4.476433 49.194246 -64.160950 -44.683244 6.123972 -32.860159 -8.085704 9.724569 35.738965 9.158209 -3.816552 17.308480 -10.909142 -40.888072 55.726480 -31.394524 -1.282463 8.808921 -17.135615 
-0.147277 0.013270 0.888660 173.120040 -0.648066 79.661536 7.423145 -5.386419 -14.214273 -4.121119 -3.655064 44.312392 2.238098 16.393066 -32.127277 0.000000 -0.000000 0.000000 -6.111516 1.805124 -21.217975 -2.278514 0.753132 49.870346 1.414521 -11.855387 -26.005091 0.000000 -0.000000 0.000000 1.665440 1.581652 17.523042 -2.664809 1.714256 2.716326 -0.874550 5.849456 -14.043166 -3.416929 35.357772 9.366607 1.278122 33.856522 -1.595497 -10.873372 -35.068284 -1.783187 1.766131 -14.559333 -4.421281 49.001791 -64.146656 -45.878923 6.398068 -33.092960 -6.539926 10.469176 36.473554 9.641401 -5.318072 16.815183 -11.871067 -37.481661 55.266932 -31.478250 -2.963218 9.441733 -14.434444 
